<svg xmlns="http://www.w3.org/2000/svg" xmlns:xlink="http://www.w3.org/1999/xlink" width="500" zoomAndPan="magnify" viewBox="0 0 375 374.999991" height="500" preserveAspectRatio="xMidYMid meet" version="1.0"><defs><clipPath id="ede75aa361"><path d="M 104.148438 73.109375 L 270.648438 73.109375 L 270.648438 266.609375 L 104.148438 266.609375 Z M 104.148438 73.109375 " clip-rule="nonzero"/></clipPath></defs><g clip-path="url(#ede75aa361)"><path fill="#004aad" d="M 270.628906 201.167969 L 234.152344 180.113281 L 196.671875 201.707031 L 122.90625 159.175781 L 122.714844 159.0625 L 122.90625 158.945312 L 122.90625 137.542969 L 122.714844 137.425781 L 122.90625 137.3125 L 196.671875 94.742188 L 251.886719 126.589844 L 233.148438 137.425781 L 196.671875 116.375 L 141.453125 148.226562 L 160.195312 159.0625 L 196.671875 138.007812 L 233.148438 159.0625 L 270.628906 137.425781 L 270.628906 115.792969 L 196.671875 73.109375 L 104.164062 126.476562 L 104.164062 169.972656 L 196.671875 223.339844 L 234.152344 201.707031 L 252.894531 212.542969 L 196.671875 244.976562 L 104.164062 191.609375 L 104.164062 213.242188 L 196.671875 266.609375 L 270.628906 223.921875 Z M 270.628906 201.167969 " fill-opacity="1" fill-rule="evenodd"/></g></svg>